# xmcd
#
# Track frame offsets:
#	150
#	19837
#	51075
#	81770
#
# Disc length: 1349 seconds
#
# Revision: 5
# Processed by: cddbd v1.5.2PL0 Copyright (c) Steve Scherf et al.
# Submitted via: EZCDAudioConverter 1.3.4.1
#
DISCID=27054304
DTITLE=Mick Jagger - Sweet Thing
DYEAR=1992
DGENRE=
TTITLE0=Sweet Thing
TTITLE1=Sweet Thing [Mick's Mix]
TTITLE2=Sweet Thing [Dub]
TTITLE3=Wandering Spirit
EXTD=
EXTT0=
EXTT1=
EXTT2=
EXTT3=
PLAYORDER=
